# xmcd CD database file
#
# Track frame offsets:
#	150
#	34631
#	88290
#	135479
#	170787
#
# Disc length: 2745 seconds
#
# Revision: 0
# Processed by: cddbd v1.5.1PL2 Copyright (c) Steve Scherf et al.
# Submitted via: CDex 1.51
#
DISCID=3e0ab705
DTITLE=Oregon - 2005 Leipziger Jazztage
DYEAR=2005
DGENRE=Jazz
TTITLE0=Oregon - If
TTITLE1=Oregon - June Bug
TTITLE2=Oregon - An Open Door
TTITLE3=Oregon - Pepe Linque
TTITLE4=Oregon - Distant Hills
EXTD=YEAR: 2005
EXTT0=
EXTT1=
EXTT2=
EXTT3=
EXTT4=
PLAYORDER=
